<svg version="1.1" id="Layer_1" xmlns="http://www.w3.org/2000/svg" xmlns:xlink="http://www.w3.org/1999/xlink" x="0px" y="0px"
	 width="100%" viewBox="0 0 224 224" enable-background="new 0 0 224 224" xml:space="preserve">
<path fill="#000000" opacity="1.000000" stroke="none" 
	d="
M149.000000,225.000000 
	C99.333336,225.000000 50.166672,225.000000 1.000007,225.000000 
	C1.000004,150.333344 1.000004,75.666679 1.000002,1.000017 
	C75.666656,1.000011 150.333313,1.000011 224.999969,1.000005 
	C224.999985,75.666649 224.999985,150.333298 225.000000,224.999969 
	C199.833328,225.000000 174.666672,225.000000 149.000000,225.000000 
M30.721121,136.939529 
	C35.197983,153.297668 39.757290,169.634048 44.087608,186.030884 
	C45.043484,189.650345 46.760826,191.713455 50.477520,192.693390 
	C71.228767,198.164597 91.932579,203.815842 112.648407,209.421082 
	C115.226585,210.118668 117.396439,209.925919 119.460518,207.833893 
	C135.017670,192.066086 150.650406,176.372772 166.283127,160.679688 
	C168.062637,158.893280 168.855072,157.098602 168.125336,154.436996 
	C162.320496,133.264740 156.591248,112.071236 150.984283,90.845825 
	C150.191086,87.843147 148.531479,86.371239 145.701523,85.624168 
	C124.951088,80.146347 104.190308,74.704437 83.493347,69.030304 
	C79.758072,68.006271 77.290405,68.789322 74.634552,71.481583 
	C62.353710,83.930748 50.456268,96.846306 37.314388,108.327568 
	C28.228569,116.265312 24.626051,124.112656 30.273382,135.183578 
	C30.419325,135.469681 30.417671,135.831055 30.721121,136.939529 
M169.549774,44.773056 
	C173.880478,45.954418 178.170227,47.329639 182.554855,48.255680 
	C186.050598,48.993992 187.951248,50.591133 188.804077,54.261330 
	C190.570801,61.864399 192.817886,69.358566 194.970078,76.868095 
	C195.912872,80.157730 196.334152,83.668129 198.478760,86.796280 
	C201.891922,85.377792 203.572250,82.294029 206.142044,80.305733 
	C209.205658,77.935379 209.660934,75.153938 208.601440,71.531914 
	C206.128815,63.078922 203.735733,54.589645 201.736176,46.015778 
	C200.351227,40.077305 196.844818,36.889320 191.133698,35.473724 
	C183.873611,33.674194 176.448944,32.238636 169.490173,29.603289 
	C161.686722,26.648064 156.882355,29.961020 152.327209,35.479565 
	C150.113647,38.161304 150.874054,39.633492 153.852448,40.487343 
	C158.805328,41.907242 163.784363,43.235950 169.549774,44.773056 
M182.839874,92.411430 
	C180.821091,84.862434 178.621826,77.355614 176.844833,69.750130 
	C175.590057,64.379669 172.426270,61.517052 167.203827,60.246777 
	C159.610443,58.399811 151.943329,56.684269 144.573517,54.142017 
	C138.202881,51.944439 133.609085,53.005669 129.346268,58.298046 
	C125.632164,62.909187 125.577164,63.977398 131.251572,65.556969 
	C140.223038,68.054329 149.211777,70.500771 158.247711,72.749763 
	C161.727127,73.615768 163.496033,75.417267 164.349609,78.950768 
	C166.496109,87.836624 168.960693,96.648468 171.456833,105.444855 
	C172.007019,107.383759 171.854187,109.851128 174.169846,110.954872 
	C183.531799,105.394897 185.363449,101.706177 182.839874,92.411430 
z"/>
<path fill="#000000" opacity="1.000000" stroke="none" 
	d="
M50.427044,150.416077 
	C48.391960,142.798370 46.556126,135.549500 44.496830,128.364655 
	C43.712254,125.627304 44.273590,123.610420 46.251228,121.628891 
	C57.773228,110.084152 69.241104,98.485283 80.699089,86.876900 
	C82.403557,85.150070 84.158287,84.806190 86.547478,85.472443 
	C102.081490,89.804314 117.645805,94.029167 133.227081,98.188385 
	C136.056473,98.943657 137.755035,100.219559 138.551605,103.276718 
	C142.615784,118.874550 146.886887,134.418747 151.144623,149.965561 
	C151.833755,152.481888 151.316467,154.359253 149.419388,156.229126 
	C137.802658,167.679306 126.238457,179.183762 114.762886,190.775192 
	C112.842934,192.714554 111.012253,193.007309 108.515388,192.322845 
	C92.963257,188.059586 77.399826,183.834381 61.796185,179.765152 
	C59.006447,179.037628 57.545879,177.620300 56.859211,174.919312 
	C54.812263,166.867676 52.652782,158.844620 50.427044,150.416077 
z"/>
</svg>